REM DIRINDEX 1\2,1\3,1\4,1\5
REM DIRNAME cjc087,folder01,folder02,folder03,folder04
TITLE ""
FILE "Chapter_14.mp3" MP3
  TRACK 01 AUDIO
    TITLE "0:"
    INDEX 01 00:00:00
  TRACK 02 AUDIO
    TITLE "5:cjc087_4230"
    INDEX 01 00:00:09
  TRACK 03 AUDIO
    TITLE "0:"
    INDEX 01 00:02:18
  TRACK 04 AUDIO
    TITLE "5:cjc087_4231"
    INDEX 01 00:03:55
  TRACK 05 AUDIO
    TITLE "0:"
    INDEX 01 00:06:30
  TRACK 06 AUDIO
    TITLE "4:cjc087_4232"
    INDEX 01 00:07:25
  TRACK 07 AUDIO
    TITLE "3:cjc087_4233"
    INDEX 01 00:09:06
  TRACK 08 AUDIO
    TITLE "0:"
    INDEX 01 00:11:40
  TRACK 09 AUDIO
    TITLE "4:cjc087_4234"
    INDEX 01 00:12:38
  TRACK 10 AUDIO
    TITLE "3:cjc087_4235"
    INDEX 01 00:13:51
  TRACK 11 AUDIO
    TITLE "0:"
    INDEX 01 00:16:14
  TRACK 12 AUDIO
    TITLE "4:cjc087_4236"
    INDEX 01 00:17:14
  TRACK 13 AUDIO
    TITLE "3:cjc087_4237"
    INDEX 01 00:19:01
  TRACK 14 AUDIO
    TITLE "0:"
    INDEX 01 00:20:53
  TRACK 15 AUDIO
    TITLE "4:cjc087_4238"
    INDEX 01 00:21:53
  TRACK 16 AUDIO
    TITLE "3:cjc087_4239"
    INDEX 01 00:23:44
  TRACK 17 AUDIO
    TITLE "0:"
    INDEX 01 00:26:32
  TRACK 18 AUDIO
    TITLE "4:cjc087_4240"
    INDEX 01 00:27:28
  TRACK 19 AUDIO
    TITLE "3:cjc087_4241"
    INDEX 01 00:28:60
  TRACK 20 AUDIO
    TITLE "0:"
    INDEX 01 00:30:48
  TRACK 21 AUDIO
    TITLE "4:cjc087_4242"
    INDEX 01 00:31:47
  TRACK 22 AUDIO
    TITLE "3:cjc087_4243"
    INDEX 01 00:33:48
  TRACK 23 AUDIO
    TITLE "0:"
    INDEX 01 00:35:64
  TRACK 24 AUDIO
    TITLE "4:cjc087_4244"
    INDEX 01 00:36:64
  TRACK 25 AUDIO
    TITLE "3:cjc087_4245"
    INDEX 01 00:38:71
  TRACK 26 AUDIO
    TITLE "0:"
    INDEX 01 00:41:57
  TRACK 27 AUDIO
    TITLE "5:cjc087_4246"
    INDEX 01 00:43:17
  TRACK 28 AUDIO
    TITLE "0:"
    INDEX 01 00:45:65
  TRACK 29 AUDIO
    TITLE "4:cjc087_4247"
    INDEX 01 00:46:62
  TRACK 30 AUDIO
    TITLE "3:cjc087_4248"
    INDEX 01 00:48:57
  TRACK 31 AUDIO
    TITLE "0:"
    INDEX 01 00:51:20
  TRACK 32 AUDIO
    TITLE "4:cjc087_4249"
    INDEX 01 00:52:18
  TRACK 33 AUDIO
    TITLE "3:cjc087_4250"
    INDEX 01 00:54:48
  TRACK 34 AUDIO
    TITLE "0:"
    INDEX 01 00:57:05
  TRACK 35 AUDIO
    TITLE "4:cjc087_4251"
    INDEX 01 00:58:05
  TRACK 36 AUDIO
    TITLE "3:cjc087_4252"
    INDEX 01 01:01:19
  TRACK 37 AUDIO
    TITLE "0:"
    INDEX 01 01:05:01
  TRACK 38 AUDIO
    TITLE "4:cjc087_4253"
    INDEX 01 01:06:00
  TRACK 39 AUDIO
    TITLE "3:cjc087_4254"
    INDEX 01 01:07:47
  TRACK 40 AUDIO
    TITLE "0:"
    INDEX 01 01:09:57
  TRACK 41 AUDIO
    TITLE "4:cjc087_4255"
    INDEX 01 01:10:55
  TRACK 42 AUDIO
    TITLE "3:cjc087_4256"
    INDEX 01 01:13:18
  TRACK 43 AUDIO
    TITLE "0:"
    INDEX 01 01:15:72
  TRACK 44 AUDIO
    TITLE "4:cjc087_4257"
    INDEX 01 01:16:69
  TRACK 45 AUDIO
    TITLE "3:cjc087_4258"
    INDEX 01 01:18:66
  TRACK 46 AUDIO
    TITLE "0:"
    INDEX 01 01:20:73
  TRACK 47 AUDIO
    TITLE "2:cjc087_4259"
    INDEX 01 01:22:39
  TRACK 48 AUDIO
    TITLE "0:"
    INDEX 01 01:43:11
  TRACK 49 AUDIO
    TITLE "5:cjc087_4260"
    INDEX 01 01:44:48
  TRACK 50 AUDIO
    TITLE "0:"
    INDEX 01 01:47:17
  TRACK 51 AUDIO
    TITLE "4:cjc087_4261"
    INDEX 01 01:48:12
  TRACK 52 AUDIO
    TITLE "3:cjc087_4262"
    INDEX 01 01:50:23
  TRACK 53 AUDIO
    TITLE "0:"
    INDEX 01 01:52:26
  TRACK 54 AUDIO
    TITLE "4:cjc087_4263"
    INDEX 01 01:53:18
  TRACK 55 AUDIO
    TITLE "3:cjc087_4264"
    INDEX 01 01:55:07
  TRACK 56 AUDIO
    TITLE "0:"
    INDEX 01 01:57:13
  TRACK 57 AUDIO
    TITLE "4:cjc087_4265"
    INDEX 01 01:58:09
  TRACK 58 AUDIO
    TITLE "3:cjc087_4266"
    INDEX 01 01:59:73
  TRACK 59 AUDIO
    TITLE "0:"
    INDEX 01 02:01:68
  TRACK 60 AUDIO
    TITLE "4:cjc087_4267"
    INDEX 01 02:02:66
  TRACK 61 AUDIO
    TITLE "3:cjc087_4268"
    INDEX 01 02:04:51
  TRACK 62 AUDIO
    TITLE "0:"
    INDEX 01 02:07:00
  TRACK 63 AUDIO
    TITLE "4:cjc087_4269"
    INDEX 01 02:07:73
  TRACK 64 AUDIO
    TITLE "3:cjc087_4270"
    INDEX 01 02:10:61
  TRACK 65 AUDIO
    TITLE "0:"
    INDEX 01 02:14:33
  TRACK 66 AUDIO
    TITLE "4:cjc087_4271"
    INDEX 01 02:15:31
  TRACK 67 AUDIO
    TITLE "3:cjc087_4272"
    INDEX 01 02:17:04
  TRACK 68 AUDIO
    TITLE "0:"
    INDEX 01 02:19:25
  TRACK 69 AUDIO
    TITLE "4:cjc087_4273"
    INDEX 01 02:20:24
  TRACK 70 AUDIO
    TITLE "3:cjc087_4274"
    INDEX 01 02:24:10
  TRACK 71 AUDIO
    TITLE "0:"
    INDEX 01 02:26:62
  TRACK 72 AUDIO
    TITLE "5:cjc087_4275"
    INDEX 01 02:28:22
  TRACK 73 AUDIO
    TITLE "0:"
    INDEX 01 02:30:40
  TRACK 74 AUDIO
    TITLE "4:cjc087_4276"
    INDEX 01 02:31:36
  TRACK 75 AUDIO
    TITLE "3:cjc087_4277"
    INDEX 01 02:33:21
  TRACK 76 AUDIO
    TITLE "0:"
    INDEX 01 02:35:32
  TRACK 77 AUDIO
    TITLE "4:cjc087_4278"
    INDEX 01 02:36:29
  TRACK 78 AUDIO
    TITLE "3:cjc087_4279"
    INDEX 01 02:37:72
  TRACK 79 AUDIO
    TITLE "0:"
    INDEX 01 02:40:05
  TRACK 80 AUDIO
    TITLE "4:cjc087_4280"
    INDEX 01 02:41:03
  TRACK 81 AUDIO
    TITLE "3:cjc087_4281"
    INDEX 01 02:42:69
  TRACK 82 AUDIO
    TITLE "0:"
    INDEX 01 02:45:01
  TRACK 83 AUDIO
    TITLE "4:cjc087_4282"
    INDEX 01 02:46:00
  TRACK 84 AUDIO
    TITLE "3:cjc087_4283"
    INDEX 01 02:48:52
  TRACK 85 AUDIO
    TITLE "0:"
    INDEX 01 02:50:65
  TRACK 86 AUDIO
    TITLE "4:cjc087_4284"
    INDEX 01 02:51:62
  TRACK 87 AUDIO
    TITLE "3:cjc087_4285"
    INDEX 01 02:53:33
  TRACK 88 AUDIO
    TITLE "0:"
    INDEX 01 02:55:28
  TRACK 89 AUDIO
    TITLE "4:cjc087_4286"
    INDEX 01 02:56:22
  TRACK 90 AUDIO
    TITLE "3:cjc087_4287"
    INDEX 01 02:57:67
  TRACK 91 AUDIO
    TITLE "0:"
    INDEX 01 02:59:46
  TRACK 92 AUDIO
    TITLE "4:cjc087_4288"
    INDEX 01 03:00:43
  TRACK 93 AUDIO
    TITLE "3:cjc087_4289"
    INDEX 01 03:02:52
  TRACK 94 AUDIO
    TITLE "0:"
    INDEX 01 03:04:49
  TRACK 95 AUDIO
    TITLE "4:cjc087_4290"
    INDEX 01 03:05:46
  TRACK 96 AUDIO
    TITLE "3:cjc087_4291"
    INDEX 01 03:07:55
  TRACK 97 AUDIO
    TITLE "0:"
    INDEX 01 03:10:32
  TRACK 98 AUDIO
    TITLE "5:cjc087_4292"
    INDEX 01 03:11:69
  TRACK 99 AUDIO
    TITLE "0:"
    INDEX 01 03:14:36
  TRACK 100 AUDIO
    TITLE "4:cjc087_4293"
    INDEX 01 03:15:33
  TRACK 101 AUDIO
    TITLE "3:cjc087_4294"
    INDEX 01 03:18:04
  TRACK 102 AUDIO
    TITLE "0:"
    INDEX 01 03:20:05
  TRACK 103 AUDIO
    TITLE "4:cjc087_4295"
    INDEX 01 03:21:04
  TRACK 104 AUDIO
    TITLE "3:cjc087_4296"
    INDEX 01 03:24:05
  TRACK 105 AUDIO
    TITLE "0:"
    INDEX 01 03:25:71
  TRACK 106 AUDIO
    TITLE "4:cjc087_4297"
    INDEX 01 03:26:70
  TRACK 107 AUDIO
    TITLE "3:cjc087_4298"
    INDEX 01 03:29:04
  TRACK 108 AUDIO
    TITLE "0:"
    INDEX 01 03:31:26
  TRACK 109 AUDIO
    TITLE "4:cjc087_4299"
    INDEX 01 03:32:26
  TRACK 110 AUDIO
    TITLE "3:cjc087_4300"
    INDEX 01 03:34:13
  TRACK 111 AUDIO
    TITLE "0:"
    INDEX 01 03:36:18
  TRACK 112 AUDIO
    TITLE "4:cjc087_4301"
    INDEX 01 03:37:17
  TRACK 113 AUDIO
    TITLE "3:cjc087_4302"
    INDEX 01 03:39:12
  TRACK 114 AUDIO
    TITLE "0:"
    INDEX 01 03:41:01
  TRACK 115 AUDIO
    TITLE "4:cjc087_4303"
    INDEX 01 03:42:01
  TRACK 116 AUDIO
    TITLE "3:cjc087_4304"
    INDEX 01 03:44:43
  TRACK 117 AUDIO
    TITLE "0:"
    INDEX 01 03:46:45
  TRACK 118 AUDIO
    TITLE "4:cjc087_4305"
    INDEX 01 03:47:43
  TRACK 119 AUDIO
    TITLE "3:cjc087_4306"
    INDEX 01 03:49:56
  TRACK 120 AUDIO
    TITLE "0:"
    INDEX 01 03:52:01
  TRACK 121 AUDIO
    TITLE "4:cjc087_4307"
    INDEX 01 03:53:00
  TRACK 122 AUDIO
    TITLE "3:cjc087_4308"
    INDEX 01 03:54:47
  TRACK 123 AUDIO
    TITLE "0:"
    INDEX 01 03:56:73
  TRACK 124 AUDIO
    TITLE "5:cjc087_4309"
    INDEX 01 03:58:35
  TRACK 125 AUDIO
    TITLE "0:"
    INDEX 01 04:00:69
  TRACK 126 AUDIO
    TITLE "4:cjc087_4310"
    INDEX 01 04:01:65
  TRACK 127 AUDIO
    TITLE "3:cjc087_4311"
    INDEX 01 04:03:32
  TRACK 128 AUDIO
    TITLE "0:"
    INDEX 01 04:05:39
  TRACK 129 AUDIO
    TITLE "4:cjc087_4312"
    INDEX 01 04:06:38
  TRACK 130 AUDIO
    TITLE "3:cjc087_4313"
    INDEX 01 04:08:04
  TRACK 131 AUDIO
    TITLE "0:"
    INDEX 01 04:09:72
  TRACK 132 AUDIO
    TITLE "4:cjc087_4314"
    INDEX 01 04:10:71
  TRACK 133 AUDIO
    TITLE "3:cjc087_4315"
    INDEX 01 04:12:43
  TRACK 134 AUDIO
    TITLE "0:"
    INDEX 01 04:14:28
  TRACK 135 AUDIO
    TITLE "4:cjc087_4316"
    INDEX 01 04:15:20
  TRACK 136 AUDIO
    TITLE "3:cjc087_4317"
    INDEX 01 04:16:60
  TRACK 137 AUDIO
    TITLE "0:"
    INDEX 01 04:18:61
  TRACK 138 AUDIO
    TITLE "4:cjc087_4318"
    INDEX 01 04:19:59
  TRACK 139 AUDIO
    TITLE "3:cjc087_4319"
    INDEX 01 04:21:44
  TRACK 140 AUDIO
    TITLE "0:"
    INDEX 01 04:23:41
  TRACK 141 AUDIO
    TITLE "4:cjc087_4320"
    INDEX 01 04:24:40
  TRACK 142 AUDIO
    TITLE "3:cjc087_4321"
    INDEX 01 04:26:72
  TRACK 143 AUDIO
    TITLE "0:"
    INDEX 01 04:29:59
  TRACK 144 AUDIO
    TITLE "4:cjc087_4322"
    INDEX 01 04:30:62
  TRACK 145 AUDIO
    TITLE "3:cjc087_4323"
    INDEX 01 04:32:65
  TRACK 146 AUDIO
    TITLE "0:"
    INDEX 01 04:34:66
  TRACK 147 AUDIO
    TITLE "5:cjc087_4324"
    INDEX 01 04:36:28
  TRACK 148 AUDIO
    TITLE "0:"
    INDEX 01 04:38:62
  TRACK 149 AUDIO
    TITLE "4:cjc087_4325"
    INDEX 01 04:39:61
  TRACK 150 AUDIO
    TITLE "3:cjc087_4326"
    INDEX 01 04:41:01
  TRACK 151 AUDIO
    TITLE "0:"
    INDEX 01 04:42:62
  TRACK 152 AUDIO
    TITLE "4:cjc087_4327"
    INDEX 01 04:43:59
  TRACK 153 AUDIO
    TITLE "3:cjc087_4328"
    INDEX 01 04:45:54
  TRACK 154 AUDIO
    TITLE "0:"
    INDEX 01 04:48:13
  TRACK 155 AUDIO
    TITLE "4:cjc087_4329"
    INDEX 01 04:49:11
  TRACK 156 AUDIO
    TITLE "3:cjc087_4330"
    INDEX 01 04:51:23
  TRACK 157 AUDIO
    TITLE "0:"
    INDEX 01 04:53:36
  TRACK 158 AUDIO
    TITLE "4:cjc087_4331"
    INDEX 01 04:54:35
  TRACK 159 AUDIO
    TITLE "3:cjc087_4332"
    INDEX 01 04:56:38
  TRACK 160 AUDIO
    TITLE "0:"
    INDEX 01 04:58:70
  TRACK 161 AUDIO
    TITLE "4:cjc087_4333"
    INDEX 01 04:59:68
  TRACK 162 AUDIO
    TITLE "3:cjc087_4334"
    INDEX 01 05:02:51
  TRACK 163 AUDIO
    TITLE "0:"
    INDEX 01 05:05:29
  TRACK 164 AUDIO
    TITLE "4:cjc087_4335"
    INDEX 01 05:06:29
  TRACK 165 AUDIO
    TITLE "3:cjc087_4336"
    INDEX 01 05:09:55
  TRACK 166 AUDIO
    TITLE "0:"
    INDEX 01 05:12:25
  TRACK 167 AUDIO
    TITLE "4:cjc087_4337"
    INDEX 01 05:13:23
  TRACK 168 AUDIO
    TITLE "3:cjc087_4338"
    INDEX 01 05:15:51
  TRACK 169 AUDIO
    TITLE "0:"
    INDEX 01 05:18:26
  TRACK 170 AUDIO
    TITLE "5:cjc087_4339"
    INDEX 01 05:19:55
  TRACK 171 AUDIO
    TITLE "0:"
    INDEX 01 05:22:24
  TRACK 172 AUDIO
    TITLE "4:cjc087_4340"
    INDEX 01 05:23:17
  TRACK 173 AUDIO
    TITLE "3:cjc087_4341"
    INDEX 01 05:24:60
  TRACK 174 AUDIO
    TITLE "0:"
    INDEX 01 05:26:37
  TRACK 175 AUDIO
    TITLE "4:cjc087_4342"
    INDEX 01 05:27:35
  TRACK 176 AUDIO
    TITLE "3:cjc087_4343"
    INDEX 01 05:29:63
  TRACK 177 AUDIO
    TITLE "0:"
    INDEX 01 05:32:56
  TRACK 178 AUDIO
    TITLE "4:cjc087_4344"
    INDEX 01 05:33:51
  TRACK 179 AUDIO
    TITLE "3:cjc087_4345"
    INDEX 01 05:35:42
  TRACK 180 AUDIO
    TITLE "0:"
    INDEX 01 05:37:23
  TRACK 181 AUDIO
    TITLE "4:cjc087_4346"
    INDEX 01 05:38:23
  TRACK 182 AUDIO
    TITLE "3:cjc087_4347"
    INDEX 01 05:40:26
  TRACK 183 AUDIO
    TITLE "0:"
    INDEX 01 05:42:17
  TRACK 184 AUDIO
    TITLE "4:cjc087_4348"
    INDEX 01 05:43:10
  TRACK 185 AUDIO
    TITLE "3:cjc087_4349"
    INDEX 01 05:45:45
  TRACK 186 AUDIO
    TITLE "0:"
    INDEX 01 05:48:19
  TRACK 187 AUDIO
    TITLE "4:cjc087_4350"
    INDEX 01 05:49:15
  TRACK 188 AUDIO
    TITLE "3:cjc087_4351"
    INDEX 01 05:52:23
  TRACK 189 AUDIO
    TITLE "0:"
    INDEX 01 05:55:00
  TRACK 190 AUDIO
    TITLE "4:cjc087_4352"
    INDEX 01 05:55:72
  TRACK 191 AUDIO
    TITLE "3:cjc087_4353"
    INDEX 01 05:57:69
  TRACK 192 AUDIO
    TITLE "0:"
    INDEX 01 05:59:54
  TRACK 193 AUDIO
    TITLE "2:cjc087_4354"
    INDEX 01 06:01:16
  TRACK 194 AUDIO
    TITLE "0:"
    INDEX 01 06:23:31
  TRACK 195 AUDIO
    TITLE "5:cjc087_4355"
    INDEX 01 06:24:74
  TRACK 196 AUDIO
    TITLE "0:"
    INDEX 01 06:27:31
  TRACK 197 AUDIO
    TITLE "4:cjc087_4356"
    INDEX 01 06:28:27
  TRACK 198 AUDIO
    TITLE "3:cjc087_4357"
    INDEX 01 06:30:37
  TRACK 199 AUDIO
    TITLE "0:"
    INDEX 01 06:32:72
  TRACK 200 AUDIO
    TITLE "4:cjc087_4358"
    INDEX 01 06:33:67
  TRACK 201 AUDIO
    TITLE "3:cjc087_4359"
    INDEX 01 06:35:42
  TRACK 202 AUDIO
    TITLE "0:"
    INDEX 01 06:37:18
  TRACK 203 AUDIO
    TITLE "4:cjc087_4360"
    INDEX 01 06:38:15
  TRACK 204 AUDIO
    TITLE "3:cjc087_4361"
    INDEX 01 06:39:68
  TRACK 205 AUDIO
    TITLE "0:"
    INDEX 01 06:41:74
  TRACK 206 AUDIO
    TITLE "4:cjc087_4362"
    INDEX 01 06:42:72
  TRACK 207 AUDIO
    TITLE "3:cjc087_4363"
    INDEX 01 06:44:47
  TRACK 208 AUDIO
    TITLE "0:"
    INDEX 01 06:46:62
  TRACK 209 AUDIO
    TITLE "4:cjc087_4364"
    INDEX 01 06:47:59
  TRACK 210 AUDIO
    TITLE "3:cjc087_4365"
    INDEX 01 06:49:25
  TRACK 211 AUDIO
    TITLE "0:"
    INDEX 01 06:51:41
  TRACK 212 AUDIO
    TITLE "4:cjc087_4366"
    INDEX 01 06:52:33
  TRACK 213 AUDIO
    TITLE "3:cjc087_4367"
    INDEX 01 06:54:59
  TRACK 214 AUDIO
    TITLE "0:"
    INDEX 01 06:57:21
  TRACK 215 AUDIO
    TITLE "4:cjc087_4368"
    INDEX 01 06:58:18
  TRACK 216 AUDIO
    TITLE "3:cjc087_4369"
    INDEX 01 07:00:01
  TRACK 217 AUDIO
    TITLE "0:"
    INDEX 01 07:02:12
  TRACK 218 AUDIO
    TITLE "5:cjc087_4370"
    INDEX 01 07:03:49
  TRACK 219 AUDIO
    TITLE "0:"
    INDEX 01 07:06:14
  TRACK 220 AUDIO
    TITLE "4:cjc087_4371"
    INDEX 01 07:07:11
  TRACK 221 AUDIO
    TITLE "3:cjc087_4372"
    INDEX 01 07:09:57
  TRACK 222 AUDIO
    TITLE "0:"
    INDEX 01 07:11:68
  TRACK 223 AUDIO
    TITLE "4:cjc087_4373"
    INDEX 01 07:12:67
  TRACK 224 AUDIO
    TITLE "3:cjc087_4374"
    INDEX 01 07:15:03
  TRACK 225 AUDIO
    TITLE "0:"
    INDEX 01 07:17:23
  TRACK 226 AUDIO
    TITLE "4:cjc087_4375"
    INDEX 01 07:18:21
  TRACK 227 AUDIO
    TITLE "3:cjc087_4376"
    INDEX 01 07:20:35
  TRACK 228 AUDIO
    TITLE "0:"
    INDEX 01 07:22:18
  TRACK 229 AUDIO
    TITLE "4:cjc087_4377"
    INDEX 01 07:23:18
  TRACK 230 AUDIO
    TITLE "3:cjc087_4378"
    INDEX 01 07:25:48
  TRACK 231 AUDIO
    TITLE "0:"
    INDEX 01 07:27:61
  TRACK 232 AUDIO
    TITLE "4:cjc087_4379"
    INDEX 01 07:28:58
  TRACK 233 AUDIO
    TITLE "3:cjc087_4380"
    INDEX 01 07:30:40
  TRACK 234 AUDIO
    TITLE "0:"
    INDEX 01 07:32:54
  TRACK 235 AUDIO
    TITLE "4:cjc087_4381"
    INDEX 01 07:33:54
  TRACK 236 AUDIO
    TITLE "3:cjc087_4382"
    INDEX 01 07:35:37
  TRACK 237 AUDIO
    TITLE "0:"
    INDEX 01 07:37:73
  TRACK 238 AUDIO
    TITLE "4:cjc087_4383"
    INDEX 01 07:39:03
  TRACK 239 AUDIO
    TITLE "3:cjc087_4384"
    INDEX 01 07:41:06
  TRACK 240 AUDIO
    TITLE "0:"
    INDEX 01 07:43:11
  TRACK 241 AUDIO
    TITLE "5:cjc087_4385"
    INDEX 01 07:44:46
  TRACK 242 AUDIO
    TITLE "0:"
    INDEX 01 07:47:09
  TRACK 243 AUDIO
    TITLE "4:cjc087_4386"
    INDEX 01 07:48:06
  TRACK 244 AUDIO
    TITLE "3:cjc087_4387"
    INDEX 01 07:51:12
  TRACK 245 AUDIO
    TITLE "0:"
    INDEX 01 07:53:74
  TRACK 246 AUDIO
    TITLE "4:cjc087_4388"
    INDEX 01 07:54:71
  TRACK 247 AUDIO
    TITLE "3:cjc087_4389"
    INDEX 01 07:56:53
  TRACK 248 AUDIO
    TITLE "0:"
    INDEX 01 07:58:40
  TRACK 249 AUDIO
    TITLE "4:cjc087_4390"
    INDEX 01 07:59:37
  TRACK 250 AUDIO
    TITLE "3:cjc087_4391"
    INDEX 01 08:02:12
  TRACK 251 AUDIO
    TITLE "0:"
    INDEX 01 08:04:64
  TRACK 252 AUDIO
    TITLE "4:cjc087_4392"
    INDEX 01 08:05:61
  TRACK 253 AUDIO
    TITLE "3:cjc087_4393"
    INDEX 01 08:07:45
  TRACK 254 AUDIO
    TITLE "0:"
    INDEX 01 08:09:24
  TRACK 255 AUDIO
    TITLE "4:cjc087_4394"
    INDEX 01 08:10:21
  TRACK 256 AUDIO
    TITLE "3:cjc087_4395"
    INDEX 01 08:13:08
  TRACK 257 AUDIO
    TITLE "0:"
    INDEX 01 08:16:02
  TRACK 258 AUDIO
    TITLE "4:cjc087_4396"
    INDEX 01 08:17:02
  TRACK 259 AUDIO
    TITLE "3:cjc087_4397"
    INDEX 01 08:18:54
  TRACK 260 AUDIO
    TITLE "0:"
    INDEX 01 08:20:51
  TRACK 261 AUDIO
    TITLE "4:cjc087_4398"
    INDEX 01 08:21:49
  TRACK 262 AUDIO
    TITLE "3:cjc087_4399"
    INDEX 01 08:23:18
  TRACK 263 AUDIO
    TITLE "0:"
    INDEX 01 08:25:21
  TRACK 264 AUDIO
    TITLE "4:cjc087_4400"
    INDEX 01 08:26:20
  TRACK 265 AUDIO
    TITLE "3:cjc087_4401"
    INDEX 01 08:28:47
  TRACK 266 AUDIO
    TITLE "0:"
    INDEX 01 08:30:48
  TRACK 267 AUDIO
    TITLE "5:cjc087_4402"
    INDEX 01 08:32:09
  TRACK 268 AUDIO
    TITLE "0:"
    INDEX 01 08:34:49
  TRACK 269 AUDIO
    TITLE "4:cjc087_4403"
    INDEX 01 08:35:47
  TRACK 270 AUDIO
    TITLE "3:cjc087_4404"
    INDEX 01 08:37:30
  TRACK 271 AUDIO
    TITLE "0:"
    INDEX 01 08:39:33
  TRACK 272 AUDIO
    TITLE "4:cjc087_4405"
    INDEX 01 08:40:36
  TRACK 273 AUDIO
    TITLE "3:cjc087_4406"
    INDEX 01 08:41:67
  TRACK 274 AUDIO
    TITLE "0:"
    INDEX 01 08:43:54
  TRACK 275 AUDIO
    TITLE "4:cjc087_4407"
    INDEX 01 08:44:52
  TRACK 276 AUDIO
    TITLE "3:cjc087_4408"
    INDEX 01 08:46:58
  TRACK 277 AUDIO
    TITLE "0:"
    INDEX 01 08:48:40
  TRACK 278 AUDIO
    TITLE "4:cjc087_4409"
    INDEX 01 08:49:37
  TRACK 279 AUDIO
    TITLE "3:cjc087_4410"
    INDEX 01 08:51:40
  TRACK 280 AUDIO
    TITLE "0:"
    INDEX 01 08:53:66
  TRACK 281 AUDIO
    TITLE "4:cjc087_4411"
    INDEX 01 08:54:62
  TRACK 282 AUDIO
    TITLE "3:cjc087_4412"
    INDEX 01 08:56:57
  TRACK 283 AUDIO
    TITLE "0:"
    INDEX 01 09:00:02
  TRACK 284 AUDIO
    TITLE "4:cjc087_4413"
    INDEX 01 09:01:03
  TRACK 285 AUDIO
    TITLE "3:cjc087_4414"
    INDEX 01 09:03:00
  TRACK 286 AUDIO
    TITLE "0:"
    INDEX 01 09:04:72
  TRACK 287 AUDIO
    TITLE "4:cjc087_4415"
    INDEX 01 09:05:69
  TRACK 288 AUDIO
    TITLE "3:cjc087_4416"
    INDEX 01 09:07:51
  TRACK 289 AUDIO
    TITLE "0:"
    INDEX 01 09:11:23
  TRACK 290 AUDIO
    TITLE "5:cjc087_4417"
    INDEX 01 09:12:58
  TRACK 291 AUDIO
    TITLE "0:"
    INDEX 01 09:15:19
  TRACK 292 AUDIO
    TITLE "4:cjc087_4418"
    INDEX 01 09:16:16
  TRACK 293 AUDIO
    TITLE "3:cjc087_4419"
    INDEX 01 09:18:66
  TRACK 294 AUDIO
    TITLE "0:"
    INDEX 01 09:21:08
  TRACK 295 AUDIO
    TITLE "4:cjc087_4420"
    INDEX 01 09:22:05
  TRACK 296 AUDIO
    TITLE "3:cjc087_4421"
    INDEX 01 09:24:30
  TRACK 297 AUDIO
    TITLE "0:"
    INDEX 01 09:27:12
  TRACK 298 AUDIO
    TITLE "4:cjc087_4422"
    INDEX 01 09:28:12
  TRACK 299 AUDIO
    TITLE "3:cjc087_4423"
    INDEX 01 09:30:13
  TRACK 300 AUDIO
    TITLE "0:"
    INDEX 01 09:32:10
  TRACK 301 AUDIO
    TITLE "4:cjc087_4424"
    INDEX 01 09:33:09
  TRACK 302 AUDIO
    TITLE "3:cjc087_4425"
    INDEX 01 09:35:02
  TRACK 303 AUDIO
    TITLE "0:"
    INDEX 01 09:38:20
  TRACK 304 AUDIO
    TITLE "4:cjc087_4426"
    INDEX 01 09:39:19
  TRACK 305 AUDIO
    TITLE "3:cjc087_4427"
    INDEX 01 09:41:61
  TRACK 306 AUDIO
    TITLE "0:"
    INDEX 01 09:44:26
  TRACK 307 AUDIO
    TITLE "4:cjc087_4428"
    INDEX 01 09:45:26
  TRACK 308 AUDIO
    TITLE "3:cjc087_4429"
    INDEX 01 09:46:68
  TRACK 309 AUDIO
    TITLE "0:"
    INDEX 01 09:49:51
  TRACK 310 AUDIO
    TITLE "4:cjc087_4430"
    INDEX 01 09:50:49
  TRACK 311 AUDIO
    TITLE "3:cjc087_4431"
    INDEX 01 09:52:65
  TRACK 312 AUDIO
    TITLE "0:"
    INDEX 01 09:55:18
  TRACK 313 AUDIO
    TITLE "5:cjc087_4432"
    INDEX 01 09:56:49
  TRACK 314 AUDIO
    TITLE "0:"
    INDEX 01 09:58:34
  TRACK 315 AUDIO
    TITLE "4:cjc087_4433"
    INDEX 01 09:59:32
  TRACK 316 AUDIO
    TITLE "3:cjc087_4434"
    INDEX 01 10:01:21
  TRACK 317 AUDIO
    TITLE "0:"
    INDEX 01 10:03:47
  TRACK 318 AUDIO
    TITLE "4:cjc087_4435"
    INDEX 01 10:04:45
  TRACK 319 AUDIO
    TITLE "3:cjc087_4436"
    INDEX 01 10:08:11
  TRACK 320 AUDIO
    TITLE "0:"
    INDEX 01 10:10:65
  TRACK 321 AUDIO
    TITLE "4:cjc087_4437"
    INDEX 01 10:11:64
  TRACK 322 AUDIO
    TITLE "3:cjc087_4438"
    INDEX 01 10:14:65
  TRACK 323 AUDIO
    TITLE "0:"
    INDEX 01 10:17:32
  TRACK 324 AUDIO
    TITLE "4:cjc087_4439"
    INDEX 01 10:18:31
  TRACK 325 AUDIO
    TITLE "3:cjc087_4440"
    INDEX 01 10:21:71
  TRACK 326 AUDIO
    TITLE "0:"
    INDEX 01 10:24:59
  TRACK 327 AUDIO
    TITLE "4:cjc087_4441"
    INDEX 01 10:25:59
  TRACK 328 AUDIO
    TITLE "3:cjc087_4442"
    INDEX 01 10:28:02
  TRACK 329 AUDIO
    TITLE "0:"
    INDEX 01 10:30:07
  TRACK 330 AUDIO
    TITLE "4:cjc087_4443"
    INDEX 01 10:31:12
  TRACK 331 AUDIO
    TITLE "3:cjc087_4444"
    INDEX 01 10:33:09
  TRACK 332 AUDIO
    TITLE "0:"
    INDEX 01 10:35:47
  TRACK 333 AUDIO
    TITLE "4:cjc087_4445"
    INDEX 01 10:36:47
  TRACK 334 AUDIO
    TITLE "3:cjc087_4446"
    INDEX 01 10:38:32
  TRACK 335 AUDIO
    TITLE "0:"
    INDEX 01 10:40:35
  TRACK 336 AUDIO
    TITLE "2:cjc087_4447"
    INDEX 01 10:41:71
  TRACK 337 AUDIO
    TITLE "0:"
    INDEX 01 11:00:59
  TRACK 338 AUDIO
    TITLE "5:cjc087_4448"
    INDEX 01 11:02:29
  TRACK 339 AUDIO
    TITLE "0:"
    INDEX 01 11:04:39
  TRACK 340 AUDIO
    TITLE "4:cjc087_4449"
    INDEX 01 11:05:37
  TRACK 341 AUDIO
    TITLE "3:cjc087_4450"
    INDEX 01 11:08:12
  TRACK 342 AUDIO
    TITLE "0:"
    INDEX 01 11:10:32
  TRACK 343 AUDIO
    TITLE "4:cjc087_4451"
    INDEX 01 11:11:31
  TRACK 344 AUDIO
    TITLE "3:cjc087_4452"
    INDEX 01 11:13:24
  TRACK 345 AUDIO
    TITLE "0:"
    INDEX 01 11:15:37
  TRACK 346 AUDIO
    TITLE "4:cjc087_4453"
    INDEX 01 11:16:35
  TRACK 347 AUDIO
    TITLE "3:cjc087_4454"
    INDEX 01 11:18:24
  TRACK 348 AUDIO
    TITLE "0:"
    INDEX 01 11:20:19
  TRACK 349 AUDIO
    TITLE "4:cjc087_4455"
    INDEX 01 11:21:18
  TRACK 350 AUDIO
    TITLE "3:cjc087_4456"
    INDEX 01 11:23:23
  TRACK 351 AUDIO
    TITLE "0:"
    INDEX 01 11:26:00
  TRACK 352 AUDIO
    TITLE "4:cjc087_4457"
    INDEX 01 11:26:74
  TRACK 353 AUDIO
    TITLE "3:cjc087_4458"
    INDEX 01 11:28:55
  TRACK 354 AUDIO
    TITLE "0:"
    INDEX 01 11:30:42
  TRACK 355 AUDIO
    TITLE "4:cjc087_4459"
    INDEX 01 11:31:42
  TRACK 356 AUDIO
    TITLE "3:cjc087_4460"
    INDEX 01 11:32:51
  TRACK 357 AUDIO
    TITLE "0:"
    INDEX 01 11:34:17
  TRACK 358 AUDIO
    TITLE "4:cjc087_4461"
    INDEX 01 11:35:14
  TRACK 359 AUDIO
    TITLE "3:cjc087_4462"
    INDEX 01 11:37:23
  TRACK 360 AUDIO
    TITLE "0:"
    INDEX 01 11:39:26
  TRACK 361 AUDIO
    TITLE "4:cjc087_4463"
    INDEX 01 11:40:23
  TRACK 362 AUDIO
    TITLE "3:cjc087_4464"
    INDEX 01 11:41:38
  TRACK 363 AUDIO
    TITLE "0:"
    INDEX 01 11:43:37
  TRACK 364 AUDIO
    TITLE "5:cjc087_4465"
    INDEX 01 11:45:01
  TRACK 365 AUDIO
    TITLE "0:"
    INDEX 01 11:47:02
  TRACK 366 AUDIO
    TITLE "4:cjc087_4466"
    INDEX 01 11:47:74
  TRACK 367 AUDIO
    TITLE "3:cjc087_4467"
    INDEX 01 11:50:02
  TRACK 368 AUDIO
    TITLE "0:"
    INDEX 01 11:52:17
  TRACK 369 AUDIO
    TITLE "4:cjc087_4468"
    INDEX 01 11:53:14
  TRACK 370 AUDIO
    TITLE "3:cjc087_4469"
    INDEX 01 11:55:19
  TRACK 371 AUDIO
    TITLE "0:"
    INDEX 01 11:57:37
  TRACK 372 AUDIO
    TITLE "4:cjc087_4470"
    INDEX 01 11:58:37
  TRACK 373 AUDIO
    TITLE "3:cjc087_4471"
    INDEX 01 12:00:51
  TRACK 374 AUDIO
    TITLE "0:"
    INDEX 01 12:03:38
  TRACK 375 AUDIO
    TITLE "4:cjc087_4472"
    INDEX 01 12:04:37
  TRACK 376 AUDIO
    TITLE "3:cjc087_4473"
    INDEX 01 12:07:42
  TRACK 377 AUDIO
    TITLE "0:"
    INDEX 01 12:11:38
  TRACK 378 AUDIO
    TITLE "4:cjc087_4474"
    INDEX 01 12:12:37
  TRACK 379 AUDIO
    TITLE "3:cjc087_4475"
    INDEX 01 12:14:50
  TRACK 380 AUDIO
    TITLE "0:"
    INDEX 01 12:16:52
  TRACK 381 AUDIO
    TITLE "4:cjc087_4476"
    INDEX 01 12:17:52
  TRACK 382 AUDIO
    TITLE "3:cjc087_4477"
    INDEX 01 12:19:55
  TRACK 383 AUDIO
    TITLE "0:"
    INDEX 01 12:21:71
  TRACK 384 AUDIO
    TITLE "4:cjc087_4478"
    INDEX 01 12:22:69
  TRACK 385 AUDIO
    TITLE "3:cjc087_4479"
    INDEX 01 12:24:36
  TRACK 386 AUDIO
    TITLE "0:"
    INDEX 01 12:26:33
  TRACK 387 AUDIO
    TITLE "5:cjc087_4480"
    INDEX 01 12:27:70
  TRACK 388 AUDIO
    TITLE "0:"
    INDEX 01 12:30:04
  TRACK 389 AUDIO
    TITLE "4:cjc087_4481"
    INDEX 01 12:31:01
  TRACK 390 AUDIO
    TITLE "3:cjc087_4482"
    INDEX 01 12:32:73
  TRACK 391 AUDIO
    TITLE "0:"
    INDEX 01 12:35:15
  TRACK 392 AUDIO
    TITLE "4:cjc087_4483"
    INDEX 01 12:36:12
  TRACK 393 AUDIO
    TITLE "3:cjc087_4484"
    INDEX 01 12:37:70
  TRACK 394 AUDIO
    TITLE "0:"
    INDEX 01 12:39:71
  TRACK 395 AUDIO
    TITLE "4:cjc087_4485"
    INDEX 01 12:40:71
  TRACK 396 AUDIO
    TITLE "3:cjc087_4486"
    INDEX 01 12:42:58
  TRACK 397 AUDIO
    TITLE "0:"
    INDEX 01 12:45:15
  TRACK 398 AUDIO
    TITLE "4:cjc087_4487"
    INDEX 01 12:46:10
  TRACK 399 AUDIO
    TITLE "3:cjc087_4488"
    INDEX 01 12:48:37
  TRACK 400 AUDIO
    TITLE "0:"
    INDEX 01 12:50:40
  TRACK 401 AUDIO
    TITLE "4:cjc087_4489"
    INDEX 01 12:51:41
  TRACK 402 AUDIO
    TITLE "3:cjc087_4490"
    INDEX 01 12:54:57
  TRACK 403 AUDIO
    TITLE "0:"
    INDEX 01 12:57:42
  TRACK 404 AUDIO
    TITLE "4:cjc087_4491"
    INDEX 01 12:58:39
  TRACK 405 AUDIO
    TITLE "3:cjc087_4492"
    INDEX 01 13:00:56
  TRACK 406 AUDIO
    TITLE "0:"
    INDEX 01 13:02:58
  TRACK 407 AUDIO
    TITLE "4:cjc087_4493"
    INDEX 01 13:03:58
  TRACK 408 AUDIO
    TITLE "3:cjc087_4494"
    INDEX 01 13:06:25
  TRACK 409 AUDIO
    TITLE "0:"
    INDEX 01 13:08:45
  TRACK 410 AUDIO
    TITLE "5:cjc087_4495"
    INDEX 01 13:10:11
  TRACK 411 AUDIO
    TITLE "0:"
    INDEX 01 13:12:20
  TRACK 412 AUDIO
    TITLE "4:cjc087_4496"
    INDEX 01 13:13:15
  TRACK 413 AUDIO
    TITLE "3:cjc087_4497"
    INDEX 01 13:14:60
  TRACK 414 AUDIO
    TITLE "0:"
    INDEX 01 13:16:66
  TRACK 415 AUDIO
    TITLE "4:cjc087_4498"
    INDEX 01 13:17:66
  TRACK 416 AUDIO
    TITLE "3:cjc087_4499"
    INDEX 01 13:19:43
  TRACK 417 AUDIO
    TITLE "0:"
    INDEX 01 13:21:62
  TRACK 418 AUDIO
    TITLE "4:cjc087_4500"
    INDEX 01 13:22:57
  TRACK 419 AUDIO
    TITLE "3:cjc087_4501"
    INDEX 01 13:24:27
  TRACK 420 AUDIO
    TITLE "0:"
    INDEX 01 13:26:14
  TRACK 421 AUDIO
    TITLE "4:cjc087_4502"
    INDEX 01 13:27:13
  TRACK 422 AUDIO
    TITLE "3:cjc087_4503"
    INDEX 01 13:28:66
  TRACK 423 AUDIO
    TITLE "0:"
    INDEX 01 13:30:47
  TRACK 424 AUDIO
    TITLE "4:cjc087_4504"
    INDEX 01 13:31:44
  TRACK 425 AUDIO
    TITLE "3:cjc087_4505"
    INDEX 01 13:33:28
  TRACK 426 AUDIO
    TITLE "0:"
    INDEX 01 13:35:13
  TRACK 427 AUDIO
    TITLE "4:cjc087_4506"
    INDEX 01 13:36:12
  TRACK 428 AUDIO
    TITLE "3:cjc087_4507"
    INDEX 01 13:38:70
  TRACK 429 AUDIO
    TITLE "0:"
    INDEX 01 13:42:07
  TRACK 430 AUDIO
    TITLE "4:cjc087_4508"
    INDEX 01 13:43:04
  TRACK 431 AUDIO
    TITLE "3:cjc087_4509"
    INDEX 01 13:45:15
  TRACK 432 AUDIO
    TITLE "0:"
    INDEX 01 13:46:69
  TRACK 433 AUDIO
    TITLE "5:cjc087_4510"
    INDEX 01 13:48:33
  TRACK 434 AUDIO
    TITLE "0:"
    INDEX 01 13:50:32
  TRACK 435 AUDIO
    TITLE "4:cjc087_4511"
    INDEX 01 13:51:29
  TRACK 436 AUDIO
    TITLE "3:cjc087_4512"
    INDEX 01 13:53:09
  TRACK 437 AUDIO
    TITLE "0:"
    INDEX 01 13:55:21
  TRACK 438 AUDIO
    TITLE "4:cjc087_4513"
    INDEX 01 13:56:21
  TRACK 439 AUDIO
    TITLE "3:cjc087_4514"
    INDEX 01 13:58:37
  TRACK 440 AUDIO
    TITLE "0:"
    INDEX 01 14:00:62
  TRACK 441 AUDIO
    TITLE "4:cjc087_4515"
    INDEX 01 14:01:61
  TRACK 442 AUDIO
    TITLE "3:cjc087_4516"
    INDEX 01 14:03:42
  TRACK 443 AUDIO
    TITLE "0:"
    INDEX 01 14:06:15
  TRACK 444 AUDIO
    TITLE "4:cjc087_4517"
    INDEX 01 14:07:13
  TRACK 445 AUDIO
    TITLE "3:cjc087_4518"
    INDEX 01 14:09:23
  TRACK 446 AUDIO
    TITLE "0:"
    INDEX 01 14:11:16
  TRACK 447 AUDIO
    TITLE "4:cjc087_4519"
    INDEX 01 14:12:12
  TRACK 448 AUDIO
    TITLE "3:cjc087_4520"
    INDEX 01 14:13:70
  TRACK 449 AUDIO
    TITLE "0:"
    INDEX 01 14:16:27
  TRACK 450 AUDIO
    TITLE "4:cjc087_4521"
    INDEX 01 14:17:25
  TRACK 451 AUDIO
    TITLE "3:cjc087_4522"
    INDEX 01 14:20:10
  TRACK 452 AUDIO
    TITLE "0:"
    INDEX 01 14:22:26
  TRACK 453 AUDIO
    TITLE "4:cjc087_4523"
    INDEX 01 14:23:26
  TRACK 454 AUDIO
    TITLE "3:cjc087_4524"
    INDEX 01 14:24:72
  TRACK 455 AUDIO
    TITLE "0:"
    INDEX 01 14:27:25
  TRACK 456 AUDIO
    TITLE "5:cjc087_4525"
    INDEX 01 14:28:70
  TRACK 457 AUDIO
    TITLE "0:"
    INDEX 01 14:31:02
  TRACK 458 AUDIO
    TITLE "4:cjc087_4526"
    INDEX 01 14:31:74
  TRACK 459 AUDIO
    TITLE "3:cjc087_4527"
    INDEX 01 14:34:49
  TRACK 460 AUDIO
    TITLE "0:"
    INDEX 01 14:37:06
  TRACK 461 AUDIO
    TITLE "4:cjc087_4528"
    INDEX 01 14:38:00
  TRACK 462 AUDIO
    TITLE "3:cjc087_4529"
    INDEX 01 14:39:62
  TRACK 463 AUDIO
    TITLE "0:"
    INDEX 01 14:41:63
  TRACK 464 AUDIO
    TITLE "4:cjc087_4530"
    INDEX 01 14:42:62
  TRACK 465 AUDIO
    TITLE "3:cjc087_4531"
    INDEX 01 14:45:53
  TRACK 466 AUDIO
    TITLE "0:"
    INDEX 01 14:47:67
  TRACK 467 AUDIO
    TITLE "4:cjc087_4532"
    INDEX 01 14:48:67
  TRACK 468 AUDIO
    TITLE "3:cjc087_4533"
    INDEX 01 14:51:47
  TRACK 469 AUDIO
    TITLE "0:"
    INDEX 01 14:54:22
  TRACK 470 AUDIO
    TITLE "4:cjc087_4534"
    INDEX 01 14:55:20
  TRACK 471 AUDIO
    TITLE "3:cjc087_4535"
    INDEX 01 14:57:58
  TRACK 472 AUDIO
    TITLE "0:"
    INDEX 01 14:59:59
  TRACK 473 AUDIO
    TITLE "4:cjc087_4536"
    INDEX 01 15:00:70
  TRACK 474 AUDIO
    TITLE "3:cjc087_4537"
    INDEX 01 15:02:49
  TRACK 475 AUDIO
    TITLE "0:"
    INDEX 01 15:04:40
  TRACK 476 AUDIO
    TITLE "4:cjc087_4538"
    INDEX 01 15:05:40
  TRACK 477 AUDIO
    TITLE "3:cjc087_4539"
    INDEX 01 15:07:07
  TRACK 478 AUDIO
    TITLE "0:"
    INDEX 01 15:08:56
  TRACK 479 AUDIO
    TITLE "2:cjc087_4540"
    INDEX 01 15:10:15
  TRACK 480 AUDIO
    TITLE "0:"
    INDEX 01 15:43:58
  TRACK 481 AUDIO
    TITLE "5:cjc087_4541"
    INDEX 01 15:45:20
  TRACK 482 AUDIO
    TITLE "0:"
    INDEX 01 15:47:26
  TRACK 483 AUDIO
    TITLE "4:cjc087_4542"
    INDEX 01 15:48:24
  TRACK 484 AUDIO
    TITLE "3:cjc087_4543"
    INDEX 01 15:50:11
  TRACK 485 AUDIO
    TITLE "0:"
    INDEX 01 15:52:41
  TRACK 486 AUDIO
    TITLE "4:cjc087_4544"
    INDEX 01 15:53:41
  TRACK 487 AUDIO
    TITLE "3:cjc087_4545"
    INDEX 01 15:56:15
  TRACK 488 AUDIO
    TITLE "0:"
    INDEX 01 15:59:02
  TRACK 489 AUDIO
    TITLE "4:cjc087_4546"
    INDEX 01 16:00:00
  TRACK 490 AUDIO
    TITLE "3:cjc087_4547"
    INDEX 01 16:02:45
  TRACK 491 AUDIO
    TITLE "0:"
    INDEX 01 16:05:38
  TRACK 492 AUDIO
    TITLE "4:cjc087_4548"
    INDEX 01 16:06:35
  TRACK 493 AUDIO
    TITLE "3:cjc087_4549"
    INDEX 01 16:08:64
  TRACK 494 AUDIO
    TITLE "0:"
    INDEX 01 16:10:70
  TRACK 495 AUDIO
    TITLE "4:cjc087_4550"
    INDEX 01 16:11:68
  TRACK 496 AUDIO
    TITLE "3:cjc087_4551"
    INDEX 01 16:14:09
  TRACK 497 AUDIO
    TITLE "0:"
    INDEX 01 16:16:36
  TRACK 498 AUDIO
    TITLE "4:cjc087_4552"
    INDEX 01 16:17:31
  TRACK 499 AUDIO
    TITLE "3:cjc087_4553"
    INDEX 01 16:19:15
  TRACK 500 AUDIO
    TITLE "0:"
    INDEX 01 16:21:43
  TRACK 501 AUDIO
    TITLE "4:cjc087_4554"
    INDEX 01 16:22:40
  TRACK 502 AUDIO
    TITLE "3:cjc087_4555"
    INDEX 01 16:24:35
  TRACK 503 AUDIO
    TITLE "0:"
    INDEX 01 16:26:58
  TRACK 504 AUDIO
    TITLE "5:cjc087_4556"
    INDEX 01 16:28:17
  TRACK 505 AUDIO
    TITLE "0:"
    INDEX 01 16:30:32
  TRACK 506 AUDIO
    TITLE "4:cjc087_4557"
    INDEX 01 16:31:29
  TRACK 507 AUDIO
    TITLE "3:cjc087_4558"
    INDEX 01 16:33:24
  TRACK 508 AUDIO
    TITLE "0:"
    INDEX 01 16:35:00
  TRACK 509 AUDIO
    TITLE "4:cjc087_4559"
    INDEX 01 16:35:74
  TRACK 510 AUDIO
    TITLE "3:cjc087_4560"
    INDEX 01 16:38:00
  TRACK 511 AUDIO
    TITLE "0:"
    INDEX 01 16:40:44
  TRACK 512 AUDIO
    TITLE "4:cjc087_4561"
    INDEX 01 16:41:45
  TRACK 513 AUDIO
    TITLE "3:cjc087_4562"
    INDEX 01 16:42:63
  TRACK 514 AUDIO
    TITLE "0:"
    INDEX 01 16:44:48
  TRACK 515 AUDIO
    TITLE "4:cjc087_4563"
    INDEX 01 16:45:45
  TRACK 516 AUDIO
    TITLE "3:cjc087_4564"
    INDEX 01 16:47:36
  TRACK 517 AUDIO
    TITLE "0:"
    INDEX 01 16:49:69
  TRACK 518 AUDIO
    TITLE "4:cjc087_4565"
    INDEX 01 16:50:68
  TRACK 519 AUDIO
    TITLE "3:cjc087_4566"
    INDEX 01 16:52:30
  TRACK 520 AUDIO
    TITLE "0:"
    INDEX 01 16:54:15
  TRACK 521 AUDIO
    TITLE "4:cjc087_4567"
    INDEX 01 16:55:14
  TRACK 522 AUDIO
    TITLE "3:cjc087_4568"
    INDEX 01 16:57:52
  TRACK 523 AUDIO
    TITLE "0:"
    INDEX 01 17:00:39
